<?xml version="1.0" encoding="UTF-8"?>
<svg version="1.1" xmlns="http://www.w3.org/2000/svg" width="640" height="640">
<path d="M0 0 C2.82782343 1.18099517 5.12842055 2.84156236 7.5625 4.6875 C8.24086914 5.17863281 8.91923828 5.66976562 9.61816406 6.17578125 C11.7701191 7.75381553 13.88882786 9.3678699 16 11 C17.03713135 11.80171631 17.03713135 11.80171631 18.09521484 12.61962891 C26.18210864 18.93483572 33.90984061 25.58714949 41.40625 32.58984375 C43.56492794 34.5957237 45.75593981 36.52912914 48 38.4375 C56.28340664 45.63143979 63.93990835 53.61236975 71 62 C71.83015625 62.96421875 72.6603125 63.9284375 73.515625 64.921875 C79.94830874 72.41222065 86.12626259 80.06187098 92 88 C92.46519043 88.6285791 92.93038086 89.2571582 93.40966797 89.90478516 C132 142.44591547 132 142.44591547 132 158 C158.07 157.67 184.14 157.34 211 157 C214.63 149.41 218.26 141.82 222 134 C224.07378182 130.17075953 226.1157634 126.45286019 228.375 122.75 C228.90971924 121.85998291 229.44443848 120.96996582 229.99536133 120.05297852 C238.47329865 106.10292926 247.81019876 92.75005281 258 80 C258.75925781 79.04738281 259.51851563 78.09476562 260.30078125 77.11328125 C264.60014109 71.78920353 269.04683286 66.632679 273.6640625 61.58203125 C275.56673707 59.47890769 277.42499558 57.35008749 279.27734375 55.203125 C282.9983841 50.94217485 286.92695615 46.92483916 290.9375 42.9375 C291.60201172 42.26912109 292.26652344 41.60074219 292.95117188 40.91210938 C297.46904358 36.40300173 302.15386342 32.15229391 307 28 C308.02092733 27.11078499 309.04176811 26.22147059 310.0625 25.33203125 C316.00583025 20.23436102 322.05655001 15.33528474 328.3125 10.625 C328.95767578 10.13749268 329.60285156 9.64998535 330.26757812 9.14770508 C343.78112568 -0.91656825 343.78112568 -0.91656825 350.9609375 -0.3984375 C354.44006579 0.28139217 355.74539378 1.23005521 358 4 C364.4164424 18.99347478 367.82661997 35.45786571 370.3125 51.5 C370.47169922 52.52424072 370.63089844 53.54848145 370.79492188 54.60375977 C372.77371293 68.22756185 373.20843392 81.88207559 373.1875 95.625 C373.18689575 96.36634186 373.1862915 97.10768372 373.18566895 97.87149048 C373.14132646 118.02109481 370.73291745 137.21336403 367 157 C368.06528931 157.01401855 368.06528931 157.01401855 369.15209961 157.02832031 C372.41456674 157.08247796 375.67566924 157.16603569 378.9375 157.25 C380.05447266 157.26417969 381.17144531 157.27835938 382.32226562 157.29296875 C392.40538502 157.5886614 399.75083088 160.04293353 407.20703125 166.93359375 C412.3222467 172.82890742 415.11375069 179.99664227 415.1386652 187.75573349 C415.14413964 188.71466468 415.14961409 189.67359586 415.15525442 190.66158557 C415.15672158 192.23745185 415.15672158 192.23745185 415.15821838 193.84515381 C415.16315636 194.9633813 415.16809434 196.0816088 415.17318195 197.23372197 C415.18858355 200.99402927 415.19692482 204.75431945 415.20532227 208.51464844 C415.2148987 211.20486196 415.22486521 213.8950714 415.23532104 216.58528137 C415.25707856 222.38398272 415.27522571 228.18268638 415.29092598 233.98140717 C415.31363119 242.36540023 415.34177313 250.7493681 415.37124526 259.13333979 C415.41891317 272.7355292 415.46217953 286.33772892 415.50268555 299.93994141 C415.54204454 313.15381675 415.58347174 326.36768294 415.62768555 339.58154297 C415.63040982 340.39594187 415.63313409 341.21034077 415.63594092 342.04941842 C415.64962046 346.13498745 415.66334072 350.22055634 415.67708123 354.30612516 C415.79103343 388.20406454 415.89784557 422.10202303 416 456 C416.80531663 454.74473719 417.60631353 453.48670247 418.40551758 452.22753906 C418.85204178 451.527276 419.29856598 450.82701294 419.75862122 450.10552979 C421.5230345 447.11286971 422.61339526 444.04725177 423.6875 440.75 C424.08324219 439.56921875 424.47898437 438.3884375 424.88671875 437.171875 C427.58625998 427.78043056 428.35937275 418.35695458 428.3125 408.625 C428.31121094 407.47451172 428.30992187 406.32402344 428.30859375 405.13867188 C428.19847071 394.90273572 427.19130288 384.82962873 426.08081055 374.66186523 C422.49991078 341.30915121 429.0540645 309.13414511 449.9375 282 C451.59541395 279.97540681 453.28361492 277.97526669 455 276 C455.46519043 275.45939941 455.93038086 274.91879883 456.40966797 274.36181641 C476.15831456 251.57796186 504.04706808 232.89291378 534 227 C540.40284152 226.61054881 540.40284152 226.61054881 543.875 228.875 C546.47523793 231.47523793 546.93171339 232.35627376 547.3203125 236.01953125 C546.90359476 241.19801146 545.06068727 245.02603226 542.875 249.6875 C538.29352498 259.90166962 534.82704206 270.17624786 532 281 C531.73316406 281.99902344 531.46632813 282.99804688 531.19140625 284.02734375 C527.57149862 300.229551 530.60970872 316.38248944 533.68945312 332.37915039 C536.76085297 348.3463869 538.35569559 363.85117342 538.31567383 380.12817383 C538.31251471 382.80005833 538.33608827 385.47082916 538.36132812 388.14257812 C538.41931898 403.701436 537.06428005 419.36663751 532.25 434.25 C531.99323486 435.06879639 531.73646973 435.88759277 531.47192383 436.73120117 C524.34486512 458.81115056 512.77465902 477.03740694 497 494 C496.39800781 494.66773438 495.79601562 495.33546875 495.17578125 496.0234375 C472.02547448 520.63005424 434.21550465 535.07423457 400.76273966 536.18818736 C395.92933819 536.28662062 391.09619185 536.27670197 386.26202393 536.26742554 C384.39678125 536.27116873 382.53154015 536.2757729 380.66630149 536.28115618 C375.57511051 536.29331771 370.48398557 536.29313388 365.3927834 536.29076743 C359.88902745 536.29035755 354.3852922 536.30141427 348.88154602 536.31088257 C338.1143777 536.32745309 327.34723128 536.33299022 316.58005127 536.33410732 C307.82903727 536.33505914 299.07803046 536.33917608 290.32701874 536.34550858 C269.53767577 536.36024584 248.74833711 536.37255961 227.95898819 536.37151146 C227.29519462 536.3714803 226.63140105 536.37144914 225.94749252 536.37141704 C222.58348 536.37125084 219.21946747 536.37105276 215.85545495 536.37084763 C215.18740389 536.37080774 214.51935284 536.37076785 213.83105781 536.37072675 C212.48010111 536.37064587 211.12914442 536.37056228 209.77818773 536.37047596 C188.74321083 536.36924951 167.70829832 536.38428639 146.67333984 536.41162109 C123.0173449 536.44234948 99.36138212 536.45952801 75.70536304 536.45769465 C63.18779494 536.45703064 50.67029954 536.46252861 38.15274811 536.48405075 C27.50155082 536.50224736 16.85045926 536.50662189 6.19925317 536.4930319 C0.76607807 536.48649624 -4.6668941 536.48640717 -10.10004997 536.5037384 C-15.07530945 536.519446 -20.05020467 536.51662904 -25.02545515 536.49917014 C-26.82332007 536.49609532 -28.62121202 536.49975076 -30.41904506 536.51089029 C-41.02077304 536.57221986 -50.46180841 536.31769015 -59.3125 529.75 C-68.38639679 520.46508235 -69.29829296 511.22293245 -69.26742554 498.7041626 C-69.27116498 497.34477415 -69.27576767 495.98538785 -69.28115618 494.62600493 C-69.29336538 490.90051297 -69.29312818 487.17511095 -69.29076743 483.44960356 C-69.29035874 479.42765138 -69.30140346 475.40572784 -69.31088257 471.38378906 C-69.32748226 463.5076196 -69.33299165 455.63148008 -69.33410732 447.75529459 C-69.33505831 441.35156566 -69.33917115 434.9478466 -69.34550858 428.54412079 C-69.36311838 410.37981074 -69.37234789 392.21552431 -69.37084763 374.05120566 C-69.37076772 373.0723449 -69.3706878 372.09348414 -69.37060547 371.08496094 C-69.37052371 370.10490199 -69.37044195 369.12484304 -69.37035771 368.11508533 C-69.36954494 352.2346653 -69.38868091 336.35434015 -69.4168822 320.47394755 C-69.44562488 304.15967704 -69.45942173 287.84545278 -69.45769465 271.5311563 C-69.45703121 262.37530621 -69.46250314 253.21955559 -69.48405075 244.06372833 C-69.50228078 236.26773863 -69.50659496 228.47189348 -69.4930319 220.67589167 C-69.48651135 216.70080602 -69.48635178 212.72599753 -69.5037384 208.75093842 C-69.51951504 205.10637337 -69.51655933 201.46230419 -69.49917014 197.8177509 C-69.49466939 195.88661487 -69.50972153 193.95546318 -69.52564943 192.0243876 C-69.44369546 181.62504544 -67.44528212 172.37622106 -60.01855469 164.70825195 C-52.28118448 158.16031058 -44.72114286 157.31540739 -34.875 157.6875 C-33.15410156 157.72133789 -33.15410156 157.72133789 -31.3984375 157.75585938 C-28.59754886 157.81421122 -25.79950251 157.89601848 -23 158 C-23.11069824 157.43829102 -23.22139648 156.87658203 -23.33544922 156.29785156 C-23.85802972 153.61697553 -24.36642093 150.93356614 -24.875 148.25 C-25.04902344 147.36828125 -25.22304688 146.4865625 -25.40234375 145.578125 C-28.51933874 128.95415173 -29.38511812 112.25521687 -29.3125 95.375 C-29.31034485 94.46346161 -29.3081897 93.55192322 -29.30596924 92.61276245 C-29.03535109 20.88878638 -29.03535109 20.88878638 -11 1 C-7.49747775 -0.75126112 -3.82493622 -0.51221966 0 0 Z M-29 211 C-29.73731683 213.31191458 -29.73731683 213.31191458 -29.62361908 215.86949921 C-29.63542442 216.85383076 -29.64722976 217.83816232 -29.65939283 218.8523221 C-29.64687499 219.93129873 -29.63435714 221.01027535 -29.62145996 222.12194824 C-29.62784878 223.27002189 -29.6342376 224.41809554 -29.64082003 225.6009593 C-29.65345413 228.78838744 -29.64361545 231.97484039 -29.62430525 235.16220641 C-29.6088967 238.599222 -29.62227528 242.03614037 -29.63204956 245.47315979 C-29.6465884 252.20648727 -29.63432995 258.93951361 -29.61293632 265.67281258 C-29.58894476 273.51099623 -29.59063955 281.34911059 -29.59324223 289.1873228 C-29.59693387 303.17100568 -29.57609427 317.15454652 -29.54199219 331.13818359 C-29.50889988 344.71276439 -29.49473372 358.28719609 -29.50097656 371.86181641 C-29.50773822 386.63725717 -29.50528675 401.41263543 -29.48561716 416.18806696 C-29.48457768 416.9691486 -29.48353819 417.75023024 -29.4824672 418.55498102 C-29.48037628 420.1238213 -29.47826531 421.69266154 -29.47613403 423.26150176 C-29.46923387 428.72743527 -29.46856988 434.19334954 -29.47001648 439.6592865 C-29.47145513 446.31883124 -29.4617848 452.97825427 -29.43807012 459.63775861 C-29.42619729 463.03672919 -29.4190934 466.43552998 -29.42490768 469.83452034 C-29.42860348 473.51589371 -29.41394038 477.19673918 -29.39440918 480.87805176 C-29.39973711 481.95702838 -29.40506503 483.03600501 -29.41055441 484.1476779 C-29.40149777 485.13200945 -29.39244113 486.11634101 -29.38311005 487.13050079 C-29.38153884 487.98042492 -29.37996764 488.83034905 -29.37834883 489.70602846 C-28.90872136 492.55343264 -27.97192828 493.91593496 -26 496 C-22.6254178 497.12486073 -20.08116626 497.12769091 -16.5228138 497.13142776 C-15.85900776 497.1334804 -15.19520173 497.13553303 -14.51128036 497.13764787 C-12.27118389 497.14333419 -10.03114859 497.14185862 -7.79104614 497.14044189 C-6.17509797 497.14302459 -4.55915045 497.14603748 -2.94320381 497.1494453 C1.50978521 497.15752966 5.96275812 497.15930566 10.4157536 497.16004276 C15.21339175 497.1618908 20.01102149 497.16943681 24.80865479 497.17617798 C35.30434475 497.18977148 45.8000309 497.19578745 56.29572821 497.20018864 C62.84558156 497.20294904 69.39543344 497.20718599 75.9452858 497.21169281 C94.06975398 497.22388623 112.19422097 497.23418577 130.31869316 497.2375679 C131.4791336 497.23778747 132.63957404 497.23800703 133.83517934 497.23823325 C134.99843735 497.23845153 136.16169537 497.23866981 137.36020362 497.2388947 C139.71751205 497.23933817 142.07482048 497.23978473 144.43212891 497.24023438 C145.60144184 497.2404558 146.77075477 497.24067723 147.97550143 497.24090537 C166.9318062 497.24485523 185.88807256 497.26231464 204.84436248 497.2855939 C224.29312656 497.30928576 243.74187136 497.32176874 263.19065011 497.32293582 C274.11586925 497.32385374 285.04103835 497.32963549 295.96624374 497.34775543 C305.26737786 497.36312715 314.56844647 497.36829421 323.86959086 497.36001733 C328.61750525 497.35610057 333.3652876 497.3570903 338.11318588 497.37107468 C342.45696473 497.38375213 346.8005115 497.38267063 351.14428975 497.37048396 C352.71830504 497.36851625 354.29233643 497.37165463 355.86632906 497.38032833 C358.00154743 497.39135269 360.13593684 497.38398208 362.27113152 497.3719368 C364.05204872 497.37283243 364.05204872 497.37283243 365.86894405 497.37374616 C369.33529545 496.95997664 371.22113241 496.07804619 374 494 C375.20739688 491.58520625 375.1274767 490.07196103 375.13142776 487.37380314 C375.13526891 486.39283698 375.13911005 485.41187082 375.1430676 484.40117842 C375.14176787 482.77295178 375.14176787 482.77295178 375.14044189 481.11183167 C375.14341302 479.9647613 375.14638414 478.81769093 375.1494453 477.63586086 C375.15664035 474.44232056 375.15930575 471.24881297 375.16004276 468.05526578 C375.1618905 464.61485079 375.16943634 461.17444754 375.17617798 457.73403931 C375.18977254 450.20733846 375.19578757 442.68064294 375.20018864 435.15393186 C375.20294878 430.45725914 375.20718568 425.76058848 375.21169281 421.06391716 C375.22388622 408.06848689 375.23418586 395.07305828 375.2375679 382.07762241 C375.23778747 381.24554858 375.23800703 380.41347475 375.23823325 379.55618655 C375.23845153 378.72208875 375.23866981 377.88799094 375.2388947 377.02861744 C375.23933817 375.33833285 375.23978474 373.64804826 375.24023438 371.95776367 C375.2404558 371.11931886 375.24067723 370.28087404 375.24090537 369.4170218 C375.24485559 355.82327903 375.26231609 342.2295898 375.2855939 328.63586772 C375.30928213 314.69030474 375.32176857 300.74476865 375.32293582 286.79918522 C375.32385393 278.96479849 375.32964043 271.13048153 375.34775543 263.29611397 C375.36312227 256.62663911 375.36829714 249.95725559 375.36001733 243.2877664 C375.35609881 239.88283899 375.35709847 236.47809569 375.37107468 233.07319069 C375.38367387 229.38701664 375.377983 225.70132176 375.36749268 222.01515198 C375.37554908 220.93189827 375.38360548 219.84864456 375.39190602 218.73256499 C375.38202126 217.25720413 375.38202126 217.25720413 375.3719368 215.752038 C375.37253389 214.90065001 375.37313097 214.04926201 375.37374616 213.17207438 C374.91457148 210.50352106 374.09726133 209.65698311 372 208 C369.16467022 206.58233511 366.78688003 206.8705332 363.61462688 206.86577892 C362.61558348 206.86225058 362.61558348 206.86225058 361.59635738 206.85865095 C359.34267981 206.85194207 357.08905966 206.85241974 354.83537292 206.85282898 C353.21203804 206.84953153 351.58870397 206.84580622 349.96537095 206.8416875 C345.4873214 206.83164591 341.00928526 206.82794725 336.53122604 206.82529819 C331.70834714 206.82140156 326.88547892 206.81182284 322.06260681 206.80308533 C310.40740406 206.7833035 298.75220042 206.77325287 287.09698507 206.76435754 C281.61306528 206.75997775 276.12914646 206.75461017 270.64522743 206.74936867 C252.42386545 206.73235523 234.20250408 206.71785975 215.98113537 206.71061993 C211.25036302 206.70870993 206.51959068 206.70678961 201.78881836 206.70483398 C200.02502886 206.70410837 200.02502886 206.70410837 198.22560725 206.7033681 C179.16576222 206.69506294 160.10597986 206.66971832 141.04616221 206.63725331 C121.49346891 206.6042193 101.9408075 206.58617451 82.38808614 206.58297569 C71.40358904 206.58080727 60.41918333 206.57201022 49.43471336 206.54651451 C40.08230604 206.5248575 30.7300123 206.5167324 21.37758275 206.52648129 C16.60330741 206.53104045 11.82926668 206.52904639 7.05502319 206.50971985 C2.6870919 206.49219029 -1.68043187 206.49300219 -6.04836687 206.50861714 C-7.63116303 206.51100882 -9.21398666 206.5065895 -10.79674063 206.49478849 C-12.94402804 206.47976602 -15.08985336 206.48927276 -17.23710346 206.50501537 C-19.02794706 206.50355016 -19.02794706 206.50355016 -20.85496932 206.50205535 C-24.70079044 207.11095436 -26.35790044 208.16175315 -29 211 Z " fill="#000000" transform="translate(81,52)"/>
<path d="M0 0 C2.82782343 1.18099517 5.12842055 2.84156236 7.5625 4.6875 C8.24086914 5.17863281 8.91923828 5.66976562 9.61816406 6.17578125 C11.7701191 7.75381553 13.88882786 9.3678699 16 11 C17.03713135 11.80171631 17.03713135 11.80171631 18.09521484 12.61962891 C26.18210864 18.93483572 33.90984061 25.58714949 41.40625 32.58984375 C43.56492794 34.5957237 45.75593981 36.52912914 48 38.4375 C56.28340664 45.63143979 63.93990835 53.61236975 71 62 C71.83015625 62.96421875 72.6603125 63.9284375 73.515625 64.921875 C79.94830874 72.41222065 86.12626259 80.06187098 92 88 C92.46519043 88.6285791 92.93038086 89.2571582 93.40966797 89.90478516 C132 142.44591547 132 142.44591547 132 158 C158.07 157.67 184.14 157.34 211 157 C214.63 149.41 218.26 141.82 222 134 C224.07378182 130.17075953 226.1157634 126.45286019 228.375 122.75 C228.90971924 121.85998291 229.44443848 120.96996582 229.99536133 120.05297852 C238.47329865 106.10292926 247.81019876 92.75005281 258 80 C258.75925781 79.04738281 259.51851563 78.09476562 260.30078125 77.11328125 C264.60014109 71.78920353 269.04683286 66.632679 273.6640625 61.58203125 C275.56673707 59.47890769 277.42499558 57.35008749 279.27734375 55.203125 C282.9983841 50.94217485 286.92695615 46.92483916 290.9375 42.9375 C291.60201172 42.26912109 292.26652344 41.60074219 292.95117188 40.91210938 C297.46904358 36.40300173 302.15386342 32.15229391 307 28 C308.02092733 27.11078499 309.04176811 26.22147059 310.0625 25.33203125 C316.00583025 20.23436102 322.05655001 15.33528474 328.3125 10.625 C328.95767578 10.13749268 329.60285156 9.64998535 330.26757812 9.14770508 C343.78112568 -0.91656825 343.78112568 -0.91656825 350.9609375 -0.3984375 C354.44006579 0.28139217 355.74539378 1.23005521 358 4 C364.4164424 18.99347478 367.82661997 35.45786571 370.3125 51.5 C370.47169922 52.52424072 370.63089844 53.54848145 370.79492188 54.60375977 C372.77371293 68.22756185 373.20843392 81.88207559 373.1875 95.625 C373.18689575 96.36634186 373.1862915 97.10768372 373.18566895 97.87149048 C373.14132646 118.02109481 370.73291745 137.21336403 367 157 C368.06528931 157.01401855 368.06528931 157.01401855 369.15209961 157.02832031 C372.41456674 157.08247796 375.67566924 157.16603569 378.9375 157.25 C380.05447266 157.26417969 381.17144531 157.27835938 382.32226562 157.29296875 C392.40538502 157.5886614 399.75083088 160.04293353 407.20703125 166.93359375 C412.3222467 172.82890742 415.11375069 179.99664227 415.1386652 187.75573349 C415.14413964 188.71466468 415.14961409 189.67359586 415.15525442 190.66158557 C415.15672158 192.23745185 415.15672158 192.23745185 415.15821838 193.84515381 C415.16315636 194.9633813 415.16809434 196.0816088 415.17318195 197.23372197 C415.18858355 200.99402927 415.19692482 204.75431945 415.20532227 208.51464844 C415.2148987 211.20486196 415.22486521 213.8950714 415.23532104 216.58528137 C415.25707856 222.38398272 415.27522571 228.18268638 415.29092598 233.98140717 C415.31363119 242.36540023 415.34177313 250.7493681 415.37124526 259.13333979 C415.41891317 272.7355292 415.46217953 286.33772892 415.50268555 299.93994141 C415.54204454 313.15381675 415.58347174 326.36768294 415.62768555 339.58154297 C415.63040982 340.39594187 415.63313409 341.21034077 415.63594092 342.04941842 C415.64962046 346.13498745 415.66334072 350.22055634 415.67708123 354.30612516 C415.79103343 388.20406454 415.89784557 422.10202303 416 456 C416.80531663 454.74473719 417.60631353 453.48670247 418.40551758 452.22753906 C418.85204178 451.527276 419.29856598 450.82701294 419.75862122 450.10552979 C421.5230345 447.11286971 422.61339526 444.04725177 423.6875 440.75 C424.08324219 439.56921875 424.47898437 438.3884375 424.88671875 437.171875 C427.58625998 427.78043056 428.35937275 418.35695458 428.3125 408.625 C428.31121094 407.47451172 428.30992187 406.32402344 428.30859375 405.13867188 C428.19847071 394.90273572 427.19130288 384.82962873 426.08081055 374.66186523 C422.49991078 341.30915121 429.0540645 309.13414511 449.9375 282 C451.59541395 279.97540681 453.28361492 277.97526669 455 276 C455.46519043 275.45939941 455.93038086 274.91879883 456.40966797 274.36181641 C476.15831456 251.57796186 504.04706808 232.89291378 534 227 C540.40284152 226.61054881 540.40284152 226.61054881 543.875 228.875 C546.47523793 231.47523793 546.93171339 232.35627376 547.3203125 236.01953125 C546.90359476 241.19801146 545.06068727 245.02603226 542.875 249.6875 C538.29352498 259.90166962 534.82704206 270.17624786 532 281 C531.73316406 281.99902344 531.46632813 282.99804688 531.19140625 284.02734375 C527.57149862 300.229551 530.60970872 316.38248944 533.68945312 332.37915039 C536.76085297 348.3463869 538.35569559 363.85117342 538.31567383 380.12817383 C538.31251471 382.80005833 538.33608827 385.47082916 538.36132812 388.14257812 C538.41931898 403.701436 537.06428005 419.36663751 532.25 434.25 C531.99323486 435.06879639 531.73646973 435.88759277 531.47192383 436.73120117 C524.34486512 458.81115056 512.77465902 477.03740694 497 494 C496.39800781 494.66773438 495.79601562 495.33546875 495.17578125 496.0234375 C472.02547448 520.63005424 434.21550465 535.07423457 400.76273966 536.18818736 C395.92933819 536.28662062 391.09619185 536.27670197 386.26202393 536.26742554 C384.39678125 536.27116873 382.53154015 536.2757729 380.66630149 536.28115618 C375.57511051 536.29331771 370.48398557 536.29313388 365.3927834 536.29076743 C359.88902745 536.29035755 354.3852922 536.30141427 348.88154602 536.31088257 C338.1143777 536.32745309 327.34723128 536.33299022 316.58005127 536.33410732 C307.82903727 536.33505914 299.07803046 536.33917608 290.32701874 536.34550858 C269.53767577 536.36024584 248.74833711 536.37255961 227.95898819 536.37151146 C227.29519462 536.3714803 226.63140105 536.37144914 225.94749252 536.37141704 C222.58348 536.37125084 219.21946747 536.37105276 215.85545495 536.37084763 C215.18740389 536.37080774 214.51935284 536.37076785 213.83105781 536.37072675 C212.48010111 536.37064587 211.12914442 536.37056228 209.77818773 536.37047596 C188.74321083 536.36924951 167.70829832 536.38428639 146.67333984 536.41162109 C123.0173449 536.44234948 99.36138212 536.45952801 75.70536304 536.45769465 C63.18779494 536.45703064 50.67029954 536.46252861 38.15274811 536.48405075 C27.50155082 536.50224736 16.85045926 536.50662189 6.19925317 536.4930319 C0.76607807 536.48649624 -4.6668941 536.48640717 -10.10004997 536.5037384 C-15.07530945 536.519446 -20.05020467 536.51662904 -25.02545515 536.49917014 C-26.82332007 536.49609532 -28.62121202 536.49975076 -30.41904506 536.51089029 C-41.02077304 536.57221986 -50.46180841 536.31769015 -59.3125 529.75 C-68.38639679 520.46508235 -69.29829296 511.22293245 -69.26742554 498.7041626 C-69.27116498 497.34477415 -69.27576767 495.98538785 -69.28115618 494.62600493 C-69.29336538 490.90051297 -69.29312818 487.17511095 -69.29076743 483.44960356 C-69.29035874 479.42765138 -69.30140346 475.40572784 -69.31088257 471.38378906 C-69.32748226 463.5076196 -69.33299165 455.63148008 -69.33410732 447.75529459 C-69.33505831 441.35156566 -69.33917115 434.9478466 -69.34550858 428.54412079 C-69.36311838 410.37981074 -69.37234789 392.21552431 -69.37084763 374.05120566 C-69.37076772 373.0723449 -69.3706878 372.09348414 -69.37060547 371.08496094 C-69.37052371 370.10490199 -69.37044195 369.12484304 -69.37035771 368.11508533 C-69.36954494 352.2346653 -69.38868091 336.35434015 -69.4168822 320.47394755 C-69.44562488 304.15967704 -69.45942173 287.84545278 -69.45769465 271.5311563 C-69.45703121 262.37530621 -69.46250314 253.21955559 -69.48405075 244.06372833 C-69.50228078 236.26773863 -69.50659496 228.47189348 -69.4930319 220.67589167 C-69.48651135 216.70080602 -69.48635178 212.72599753 -69.5037384 208.75093842 C-69.51951504 205.10637337 -69.51655933 201.46230419 -69.49917014 197.8177509 C-69.49466939 195.88661487 -69.50972153 193.95546318 -69.52564943 192.0243876 C-69.44369546 181.62504544 -67.44528212 172.37622106 -60.01855469 164.70825195 C-52.28118448 158.16031058 -44.72114286 157.31540739 -34.875 157.6875 C-33.15410156 157.72133789 -33.15410156 157.72133789 -31.3984375 157.75585938 C-28.59754886 157.81421122 -25.79950251 157.89601848 -23 158 C-23.11069824 157.43829102 -23.22139648 156.87658203 -23.33544922 156.29785156 C-23.85802972 153.61697553 -24.36642093 150.93356614 -24.875 148.25 C-25.04902344 147.36828125 -25.22304688 146.4865625 -25.40234375 145.578125 C-28.51933874 128.95415173 -29.38511812 112.25521687 -29.3125 95.375 C-29.31034485 94.46346161 -29.3081897 93.55192322 -29.30596924 92.61276245 C-29.03535109 20.88878638 -29.03535109 20.88878638 -11 1 C-7.49747775 -0.75126112 -3.82493622 -0.51221966 0 0 Z M-8.55102539 7.70336914 C-10.10811522 10.17136307 -10.89157073 12.31623371 -11.68359375 15.12109375 C-11.96952393 16.12825439 -12.2554541 17.13541504 -12.55004883 18.1730957 C-12.84290771 19.25034912 -13.1357666 20.32760254 -13.4375 21.4375 C-13.74389404 22.55406982 -14.05028809 23.67063965 -14.3659668 24.82104492 C-17.1349528 35.13022661 -19.37969697 45.45007387 -21 56 C-21.17571533 57.10649902 -21.17571533 57.10649902 -21.35498047 58.23535156 C-26.61320454 93.0974553 -23.31650615 129.97882676 -15 164 C-15.8971875 163.97905273 -16.794375 163.95810547 -17.71875 163.93652344 C-21.08099859 163.86792384 -24.44249235 163.81799706 -27.80517578 163.78027344 C-29.25418917 163.76028705 -30.70312325 163.73308803 -32.15185547 163.69824219 C-41.41590198 163.48116598 -48.43339328 163.50515646 -55.98828125 169.60546875 C-63.03770439 178.02734595 -63.43867627 186.73563298 -63.38095093 197.39794922 C-63.3844124 198.74399125 -63.38918025 200.09003044 -63.39513266 201.43606377 C-63.40760515 205.11534517 -63.40148953 208.7943918 -63.39217401 212.47367382 C-63.38536839 216.44920087 -63.39587223 220.4246884 -63.40411377 224.40020752 C-63.41743719 232.1805379 -63.41457957 239.96078134 -63.40587585 247.74111509 C-63.39909423 254.06567821 -63.39818465 260.390217 -63.4014473 266.71478271 C-63.401907 267.61573256 -63.40236669 268.51668241 -63.40284032 269.44493377 C-63.40379952 271.27533039 -63.40477216 273.105727 -63.4057581 274.93612361 C-63.41430792 292.09029611 -63.40448426 309.24442048 -63.388357 326.39858508 C-63.37495419 341.11014853 -63.3772824 355.82164096 -63.39111328 370.53320312 C-63.4071763 387.62697837 -63.41348398 404.72071144 -63.40427649 421.81449318 C-63.40332087 423.63806787 -63.40237775 425.46164258 -63.4014473 427.28521729 C-63.40098447 428.18239593 -63.40052164 429.07957458 -63.40004479 430.00394046 C-63.39745707 436.31918596 -63.4018212 442.63440465 -63.40888596 448.949646 C-63.41730917 456.64828418 -63.41500355 464.34683062 -63.39904372 472.04545832 C-63.39117206 475.97165379 -63.3880505 479.89769643 -63.39799118 483.82389069 C-63.40696159 487.42133144 -63.40196697 491.01847837 -63.38605852 494.61589265 C-63.38114515 496.52652603 -63.39088624 498.43717997 -63.40123022 500.34779167 C-63.34717205 508.28010465 -62.5079175 514.91302333 -58.3125 521.75 C-51.69242047 528.19115846 -45.6759798 530.15347645 -36.59388351 530.13422108 C-35.46569137 530.13774942 -35.46569137 530.13774942 -34.31470746 530.14134905 C-31.78000134 530.14803621 -29.24534652 530.1475809 -26.71063232 530.14717102 C-24.88049817 530.15046989 -23.05036474 530.15419551 -21.22023225 530.1583125 C-16.1790998 530.16833924 -11.13797925 530.17205043 -6.09683824 530.17470181 C-0.66353743 530.17860323 4.76975393 530.18818215 10.20304871 530.19691467 C23.33621091 530.21669069 36.46937391 530.22674983 49.60254729 530.23564246 C55.79181253 530.24002625 61.98107692 530.24539308 68.17034149 530.25063133 C88.7567998 530.26764992 109.34325757 530.28214064 129.92972183 530.28938007 C135.27394868 530.29128991 140.61817552 530.29320857 145.96240234 530.29516602 C146.95828973 530.29552624 146.95828973 530.29552624 147.97429604 530.29589374 C169.4601445 530.30377206 190.94593748 530.32716982 212.43176175 530.35972196 C235.17011865 530.39410845 257.90844319 530.41373861 280.64682651 530.41702431 C293.03197363 530.41918416 305.41703936 530.42785487 317.80216217 530.45348549 C328.35877398 530.47528158 338.91528465 530.48319959 349.47191641 530.47351871 C354.8500542 530.46899879 360.22798374 530.47072419 365.60609245 530.49028015 C413.44456579 530.65453094 457.68623486 524.14887594 493.25 489.125 C521.24477942 460.60669616 532.49178012 422.81207645 532.3125 383.5625 C532.31067719 382.72995697 532.30885437 381.89741394 532.30697632 381.03964233 C532.24750642 364.8369046 530.86773296 349.2572966 527.6875 333.3515625 C521.078204 300.28634599 524.31815473 270.67966706 540.03125 240.49609375 C541.08915003 237.77029488 541.058052 236.67661964 540 234 C535.98444967 232.39582341 532.51817056 233.62740217 528.5625 234.8125 C527.82749268 235.03188232 527.09248535 235.25126465 526.33520508 235.47729492 C511.99051349 240.01671644 498.0296373 246.95474439 486 256 C484.75283203 256.93392578 484.75283203 256.93392578 483.48046875 257.88671875 C480.93123524 259.86588744 478.45854822 261.90929563 476 264 C475.04222656 264.81082031 474.08445312 265.62164062 473.09765625 266.45703125 C449.90583975 286.60539092 433.84313056 316.27492932 431 347 C430.65585904 356.79434971 431.33024938 366.28644374 432.5 376 C435.85786436 406.81357296 437.01485776 437.81604261 418.34375 464.09765625 C416.57526992 466.28762408 414.8447809 468.21449389 412.85351562 470.18139648 C412.31778931 470.71208237 411.78206299 471.24276825 411.23010254 471.78953552 C410.8241687 472.1889888 410.41823486 472.58844208 410 473 C409.99940291 472.39477766 409.99880582 471.78955532 409.99819064 471.16599292 C409.96227656 435.27501373 409.9056067 399.38412551 409.82207905 363.49322478 C409.8120619 359.18127454 409.80221772 354.86932393 409.79248047 350.55737305 C409.7905391 349.69896141 409.78859772 348.84054977 409.78659752 347.95612565 C409.75559826 334.06699537 409.73860266 320.1778816 409.72680578 306.28872325 C409.71438346 292.03125664 409.68685769 277.77387653 409.64538693 263.51646453 C409.62028243 254.72280536 409.60688049 245.92928968 409.60857043 237.13559417 C409.60860024 231.10086695 409.59392523 225.06628562 409.56783572 219.03161528 C409.55322537 215.55277853 409.54495593 212.07424095 409.55419731 208.59537888 C409.56084321 204.81539894 409.54289998 201.03628611 409.51898193 197.25639343 C409.52674235 196.16784158 409.53450277 195.07928973 409.54249835 193.95775145 C409.45042406 185.71259666 408.02754253 177.88075906 402.8515625 171.24609375 C402.11679687 170.64925781 401.38203125 170.05242187 400.625 169.4375 C399.89539063 168.81746094 399.16578125 168.19742188 398.4140625 167.55859375 C393.3260361 164.27360583 388.60211117 163.75535445 382.6328125 163.8046875 C381.95322479 163.8075174 381.27363708 163.81034729 380.57345581 163.81326294 C378.42378392 163.82437036 376.27454386 163.84945609 374.125 163.875 C372.65886023 163.88504205 371.19271386 163.89416575 369.7265625 163.90234375 C366.15090369 163.92427841 362.57549406 163.95874186 359 164 C359.14099121 163.32122803 359.28198242 162.64245605 359.42724609 161.94311523 C369.15405409 114.88241235 370.26808085 67.9452343 357.4375 21.3125 C357.14464111 20.24273926 356.85178223 19.17297852 356.55004883 18.07080078 C356.26411865 17.07419434 355.97818848 16.07758789 355.68359375 15.05078125 C355.43150146 14.17075439 355.17940918 13.29072754 354.91967773 12.3840332 C353.93383471 9.82848313 352.82559676 8.03713416 351 6 C347.52017665 5.22341251 346.10225333 5.94078663 343.01171875 7.73046875 C341.89369283 8.53583929 340.78617136 9.35592025 339.6875 10.1875 C338.78487427 10.85265625 338.78487427 10.85265625 337.86401367 11.53125 C327.25961822 19.43251091 317.05463588 27.83172086 307.359375 36.82421875 C305.3608292 38.66724857 303.32684507 40.43460726 301.25 42.1875 C297.13997978 45.76143062 293.29485053 49.59568053 289.4375 53.4375 C288.81198242 54.05842529 288.18646484 54.67935059 287.54199219 55.3190918 C283.16012768 59.71534761 279.02761684 64.27818481 275 69 C274.45496826 69.63832764 273.90993652 70.27665527 273.34838867 70.93432617 C257.37143064 89.79366369 243.34115197 109.87715348 230.9375 131.25 C230.49140381 132.00966064 230.04530762 132.76932129 229.58569336 133.55200195 C224.12333728 143.11963722 219.77100959 152.98087986 215 163 C186.29 163 157.58 163 128 163 C125.36 157.06 122.72 151.12 120 145 C117.97174063 141.12404582 115.94209808 137.3368696 113.75 133.5625 C112.92157593 132.11991821 112.92157593 132.11991821 112.07641602 130.64819336 C97.52438548 105.4989167 80.68133161 82.39751452 61 61 C59.52035559 59.33375745 58.04119744 57.66708298 56.5625 56 C50.18802543 48.92588798 43.53418938 42.13179373 36.28515625 35.94921875 C34.52699229 34.44951992 32.7884375 32.92680984 31.05859375 31.39453125 C14.763235 15.45588368 14.763235 15.45588368 -4.5 5.625 C-7.09603915 5.74542679 -7.09603915 5.74542679 -8.55102539 7.70336914 Z " fill="#FFFFFF" transform="translate(81,52)"/>
<path d="M0 0 C1.12019531 -0.01611328 2.24039063 -0.03222656 3.39453125 -0.04882812 C16.58094132 -0.05652148 26.59980842 4.10275198 37.375 11.5625 C49.38548489 23.57298489 54.06115063 38.57905985 54.375 55.25 C54.08590754 71.65599698 50.61503274 85.98209719 39.31640625 98.28125 C28.2246769 108.79648614 15.13137577 111.67049957 0.375 111.6875 C-0.7284375 111.71199219 -1.831875 111.73648438 -2.96875 111.76171875 C-16.74620107 111.8102309 -29.05119515 107.02577122 -39.125 97.5625 C-50.19265792 85.75848581 -53.61729274 71.74045443 -53.375 55.875 C-53.36218994 54.59963379 -53.34937988 53.32426758 -53.33618164 52.01025391 C-52.98586281 35.78331952 -49.10338605 22.97857989 -37.125 11.4375 C-26.12646725 2.09376169 -13.99941628 -0.03999833 0 0 Z " fill="#000000" transform="translate(280.875,309.6875)"/>
<path d="M0 0 C1.12019531 -0.01611328 2.24039063 -0.03222656 3.39453125 -0.04882812 C16.58094132 -0.05652148 26.59980842 4.10275198 37.375 11.5625 C49.38548489 23.57298489 54.06115063 38.57905985 54.375 55.25 C54.08590754 71.65599698 50.61503274 85.98209719 39.31640625 98.28125 C28.2246769 108.79648614 15.13137577 111.67049957 0.375 111.6875 C-0.7284375 111.71199219 -1.831875 111.73648438 -2.96875 111.76171875 C-16.74620107 111.8102309 -29.05119515 107.02577122 -39.125 97.5625 C-50.19265792 85.75848581 -53.61729274 71.74045443 -53.375 55.875 C-53.36218994 54.59963379 -53.34937988 53.32426758 -53.33618164 52.01025391 C-52.98586281 35.78331952 -49.10338605 22.97857989 -37.125 11.4375 C-26.12646725 2.09376169 -13.99941628 -0.03999833 0 0 Z " fill="#000000" transform="translate(158.875,309.6875)"/>
<path d="M0 0 C0.67333708 -0.00235223 1.34667417 -0.00470446 2.04041541 -0.00712797 C4.31295129 -0.0138231 6.58543007 -0.01335959 8.85797501 -0.01294994 C10.49724676 -0.01624824 12.13651769 -0.01997374 13.77578759 -0.02409142 C18.29332285 -0.03412329 22.81084482 -0.03783012 27.32838964 -0.04048073 C32.19559769 -0.04438023 37.06279518 -0.05395876 41.92999649 -0.0626936 C53.69009539 -0.08246724 65.45019516 -0.092525 77.21030653 -0.10142139 C82.74527059 -0.1058025 88.28023369 -0.11116973 93.81519699 -0.11641026 C112.2090205 -0.13342284 130.60284341 -0.14791798 148.99667358 -0.155159 C153.77126186 -0.15706896 158.54585013 -0.15898928 163.32043839 -0.16094494 C164.50717039 -0.16142868 165.69390239 -0.16191242 166.91659597 -0.16241082 C186.14962224 -0.17071474 205.3825864 -0.19605763 224.61558554 -0.22852562 C244.35138214 -0.26157143 264.08714715 -0.27960548 283.82297158 -0.28280324 C294.90812166 -0.28497055 305.99318113 -0.29375157 317.07830429 -0.31926441 C326.51700073 -0.34093751 335.95558455 -0.34903853 345.39430305 -0.33929763 C350.21136299 -0.33474319 355.0281904 -0.33670549 359.84521866 -0.35605907 C364.25453938 -0.37362187 368.66345676 -0.37274926 373.07278135 -0.35716178 C374.66836909 -0.35477522 376.26398425 -0.35916337 377.85952994 -0.37099043 C392.97319923 -0.47608686 392.97319923 -0.47608686 398.4346962 4.13422108 C400.34188671 7.17512542 400.68613998 9.50069496 400.6919651 13.06060314 C400.698414 14.05763488 400.70486289 15.05466662 400.7115072 16.08191144 C400.7068614 17.72167571 400.7068614 17.72167571 400.70212173 19.39456654 C400.70665285 20.55756326 400.71118396 21.72055999 400.71585238 22.91879904 C400.72633387 26.1476692 400.7278203 29.37639955 400.72546363 32.60528135 C400.72505582 36.08731054 400.73609119 39.56930639 400.74557877 43.05132008 C400.76219722 49.87344687 400.76768869 56.6955391 400.76880352 63.51768444 C400.76975357 69.06245159 400.77386167 74.60720733 400.78020477 80.15197086 C400.79781924 95.86914568 400.80704329 111.58629317 400.80554383 127.30347793 C400.80546391 128.15093371 400.805384 128.9983895 400.80530167 129.87152576 C400.8052199 130.72001511 400.80513814 131.56850445 400.8050539 132.44270559 C400.80424087 146.19597998 400.82338226 159.94914489 400.8515784 173.70238762 C400.88029528 187.82092597 400.89411937 201.93941091 400.89239085 216.05797923 C400.89172655 223.98578776 400.89723637 231.91348152 400.91874695 239.84126377 C400.93694302 246.59077886 400.94131911 253.34012713 400.9277281 260.0896561 C400.92119047 263.53349717 400.9211094 266.97701806 400.9384346 270.42082882 C400.95380515 274.15414366 400.94463191 277.8866125 400.92917252 281.61990833 C400.93945964 282.70862307 400.94974677 283.79733781 400.96034563 284.9190439 C400.90663666 290.77162605 400.65901777 294.68686975 396.4346962 299.13422108 C391.97911076 301.81039089 388.69735766 302.50964212 383.52869034 302.5117445 C382.85496887 302.51610482 382.18124741 302.52046514 381.48711014 302.5249576 C379.23115174 302.53589983 376.97580632 302.5254971 374.71985245 302.515172 C373.08552615 302.51862898 371.45120218 302.52339382 369.81688309 302.52935374 C365.32693622 302.54188788 360.83718042 302.53568238 356.34723282 302.52639508 C351.50462925 302.51961482 346.66205883 302.53008074 341.81946182 302.53833485 C332.33323108 302.5516853 322.84707148 302.54878859 313.36083794 302.54009692 C305.65221573 302.53332595 297.94361349 302.53240112 290.23498917 302.53566837 C289.13849139 302.53612807 288.04199362 302.53658777 286.91226864 302.5370614 C284.68486022 302.53802056 282.45745181 302.5389932 280.23004341 302.53997917 C259.33618349 302.54853691 238.44236304 302.53869291 217.5485096 302.52257808 C199.6147187 302.50917455 181.68098605 302.51150254 163.7471962 302.52533436 C142.92887284 302.54138338 122.11058408 302.5477129 101.2922554 302.53849757 C99.07297135 302.5375419 96.85368729 302.53659879 94.63440323 302.53566837 C93.54242976 302.53520555 92.4504563 302.53474272 91.32539272 302.53426587 C83.62467685 302.53167395 75.9239829 302.53605133 68.22327042 302.54310703 C58.84061494 302.5515147 49.45803478 302.54925733 40.07538795 302.5332648 C35.28683069 302.52537222 30.49839906 302.5223073 25.70984268 302.53221226 C21.32787857 302.54113921 16.94615678 302.53625936 12.56421471 302.5202796 C10.97749 302.51692331 9.39074491 302.51864487 7.80403328 302.52590697 C5.6492974 302.53501372 3.49539432 302.52568966 1.34070206 302.5117445 C0.14327881 302.51125744 -1.05414444 302.51077039 -2.28785324 302.51026857 C-7.24484832 301.94151382 -10.48933383 300.26839169 -13.90771675 296.66510391 C-16.27533204 291.62176565 -16.12501334 287.14869604 -16.08669662 281.64009571 C-16.09434772 280.4760957 -16.10199881 279.31209569 -16.10988176 278.11282295 C-16.1269301 274.89025554 -16.12608205 271.66827146 -16.11752057 268.44568861 C-16.11258365 264.96705136 -16.13061727 261.488521 -16.14559555 258.00992298 C-16.17108672 251.19839563 -16.17467738 244.38702597 -16.16999502 237.57545895 C-16.16642823 232.03883988 -16.16992888 226.50226867 -16.17844391 220.96565533 C-16.17963429 220.17751137 -16.18082466 219.38936742 -16.18205111 218.57734032 C-16.18447463 216.97620463 -16.18690289 215.37506895 -16.18933587 213.77393328 C-16.21108562 198.76059775 -16.20676235 183.74735206 -16.19456618 168.73401146 C-16.18422659 155.00087315 -16.20674193 141.26801851 -16.24476261 127.53493632 C-16.28351048 113.43100091 -16.3000331 99.32719974 -16.29251611 85.22321075 C-16.28869079 77.30597151 -16.29367937 69.38897374 -16.32194519 61.47177792 C-16.34576359 54.73214402 -16.34859364 47.99290025 -16.32436486 41.25326104 C-16.31258035 37.81522109 -16.3104046 34.37789486 -16.33436966 30.93990231 C-16.35521809 27.21104676 -16.33917674 23.48411554 -16.31374741 19.75533009 C-16.32849598 18.67089243 -16.34324455 17.58645477 -16.35844004 16.46915537 C-16.27021581 10.32964186 -15.46640435 6.82670078 -11.14446008 2.35457271 C-7.69541208 -0.31080716 -4.1769774 0.0062045 0 0 Z M-9.5653038 10.13422108 C-10.30262063 12.44613566 -10.30262063 12.44613566 -10.18892288 15.00372028 C-10.20072822 15.98805184 -10.21253356 16.97238339 -10.22469664 17.98654318 C-10.21217879 19.0655198 -10.19966094 20.14449643 -10.18676376 21.25616932 C-10.19315259 22.40424297 -10.19954141 23.55231662 -10.20612383 24.73518038 C-10.21875793 27.92260852 -10.20891925 31.10906147 -10.18960905 34.29642749 C-10.17420051 37.73344308 -10.18757908 41.17036144 -10.19735336 44.60738087 C-10.2118922 51.34070835 -10.19963375 58.07373468 -10.17824012 64.80703366 C-10.15424857 72.6452173 -10.15594335 80.48333166 -10.15854603 88.32154387 C-10.16223767 102.30522676 -10.14139807 116.2887676 -10.10729599 130.27240467 C-10.07420368 143.84698546 -10.06003752 157.42141716 -10.06628036 170.99603748 C-10.07304202 185.77147824 -10.07059056 200.54685651 -10.05092096 215.32228804 C-10.04988148 216.10336968 -10.04884199 216.88445132 -10.04777101 217.6892021 C-10.04568008 219.25804237 -10.04356911 220.82688262 -10.04143783 222.39572284 C-10.03453767 227.86165635 -10.03387368 233.32757062 -10.03532028 238.79350758 C-10.03675893 245.45305231 -10.0270886 252.11247535 -10.00337392 258.77197969 C-9.9915011 262.17095027 -9.9843972 265.56975106 -9.99021149 268.96874142 C-9.99390728 272.65011479 -9.97924418 276.33096025 -9.95971298 280.01227283 C-9.96504091 281.09124946 -9.97036883 282.17022609 -9.97585821 283.28189898 C-9.96680157 284.26623053 -9.95774493 285.25056209 -9.94841385 286.26472187 C-9.94684265 287.114646 -9.94527144 287.96457013 -9.94365263 288.84024954 C-9.47402517 291.68765372 -8.53723208 293.05015603 -6.5653038 295.13422108 C-3.1907216 296.25908181 -0.64647007 296.26191198 2.9118824 296.26564884 C3.57568844 296.26770148 4.23949447 296.26975411 4.92341584 296.27186894 C7.16351231 296.27755527 9.40354761 296.27607969 11.64365005 296.27466297 C13.25959822 296.27724567 14.87554575 296.28025856 16.49149239 296.28366637 C20.94448141 296.29175074 25.39745432 296.29352674 29.8504498 296.29426384 C34.64808795 296.29611187 39.44571768 296.30365789 44.24335098 296.31039906 C54.73904095 296.32399255 65.2347271 296.33000853 75.7304244 296.33440971 C82.28027776 296.33717011 88.83012964 296.34140706 95.37998199 296.34591389 C113.50445017 296.3581073 131.62891717 296.36840685 149.75338936 296.37178898 C150.9138298 296.37200854 152.07427023 296.37222811 153.26987553 296.37245433 C154.43313355 296.37267261 155.59639156 296.37289089 156.79489982 296.37311578 C159.15220825 296.37355925 161.50951668 296.37400581 163.8668251 296.37445545 C165.03613804 296.37467688 166.20545097 296.37489831 167.41019763 296.37512645 C186.36650239 296.3790763 205.32276876 296.39653572 224.27905868 296.41981497 C243.72782276 296.44350684 263.17656755 296.45598982 282.6253463 296.4571569 C293.55056545 296.45807482 304.47573455 296.46385657 315.40093994 296.48197651 C324.70207406 296.49734822 334.00314267 296.50251528 343.30428706 296.49423841 C348.05220144 296.49032164 352.7999838 296.49131137 357.54788208 296.50529575 C361.89166093 296.5179732 366.2352077 296.51689171 370.57898594 296.50470504 C372.15300124 296.50273732 373.72703263 296.5058757 375.30102526 296.5145494 C377.43624363 296.52557376 379.57063304 296.51820315 381.70582771 296.50615788 C383.48674492 296.50705351 383.48674492 296.50705351 385.30364025 296.50796723 C388.76999165 296.09419772 390.6558286 295.21226727 393.4346962 293.13422108 C394.64209307 290.71942733 394.5621729 289.20618211 394.56612396 286.50802422 C394.56996511 285.52705806 394.57380625 284.5460919 394.5777638 283.5353995 C394.57646407 281.90717285 394.57646407 281.90717285 394.57513809 280.24605274 C394.57810921 279.09898238 394.58108034 277.95191201 394.58414149 276.77008194 C394.59133655 273.57654164 394.59400195 270.38303405 394.59473896 267.18948686 C394.5965867 263.74907187 394.60413254 260.30866861 394.61087418 256.86826038 C394.62446873 249.34155954 394.63048377 241.81486401 394.63488483 234.28815293 C394.63764498 229.59148021 394.64188187 224.89480956 394.64638901 220.19813824 C394.65858242 207.20270797 394.66888206 194.20727936 394.6722641 181.21184349 C394.67248367 180.37976966 394.67270323 179.54769582 394.67292945 178.69040763 C394.67314773 177.85630982 394.67336601 177.02221202 394.6735909 176.16283852 C394.67403437 174.47255393 394.67448093 172.78226934 394.67493057 171.09198475 C394.675152 170.25353993 394.67537343 169.41509512 394.67560157 168.55124288 C394.67955179 154.95750011 394.69701229 141.36381088 394.72029009 127.7700888 C394.74397833 113.82452582 394.75646477 99.87898973 394.75763202 85.93340629 C394.75855013 78.09901956 394.76433663 70.2647026 394.78245163 62.43033504 C394.79781847 55.76086019 394.80299334 49.09147666 394.79471353 42.42198748 C394.79079501 39.01706007 394.79179467 35.61231676 394.80577087 32.20741177 C394.81837006 28.52123772 394.81267919 24.83554284 394.80218887 21.14937305 C394.81024528 20.06611935 394.81830168 18.98286564 394.82660222 17.86678606 C394.81671745 16.39142521 394.81671745 16.39142521 394.806633 14.88625908 C394.80723008 14.03487108 394.80782717 13.18348309 394.80844235 12.30629545 C394.34926768 9.63774213 393.53195753 8.79120418 391.4346962 7.13422108 C388.59936642 5.71655619 386.22157622 6.00475428 383.04932308 6 C382.05027967 5.99647165 382.05027967 5.99647165 381.03105357 5.99287203 C378.77737601 5.98616315 376.52375585 5.98664082 374.27006912 5.98705006 C372.64673423 5.98375261 371.02340016 5.9800273 369.40006715 5.97590858 C364.9220176 5.96586699 360.44398145 5.96216833 355.96592224 5.95951927 C351.14304333 5.95562264 346.32017511 5.94604392 341.49730301 5.9373064 C329.84210026 5.91752458 318.18689662 5.90747394 306.53168127 5.89857861 C301.04776148 5.89419882 295.56384265 5.88883125 290.07992363 5.88358974 C271.85856165 5.86657631 253.63720027 5.85208083 235.41583157 5.844841 C230.68505922 5.842931 225.95428688 5.84101068 221.22351456 5.83905506 C219.45972506 5.83832945 219.45972506 5.83832945 217.66030345 5.83758918 C198.60045842 5.82928401 179.54067606 5.8039394 160.48085841 5.77147438 C140.92816511 5.73844038 121.3755037 5.72039559 101.82278234 5.71719676 C90.83828524 5.71502835 79.85387953 5.7062313 68.86940956 5.68073559 C59.51700224 5.65907858 50.1647085 5.65095348 40.81227895 5.66070237 C36.03800361 5.66526152 31.26396288 5.66326746 26.48971939 5.64394093 C22.1217881 5.62641137 17.75426433 5.62722326 13.38632933 5.64283822 C11.80353317 5.6452299 10.22070954 5.64081057 8.63795557 5.62900957 C6.49066815 5.61398709 4.34484283 5.62349384 2.19759274 5.63923645 C0.40674913 5.63777124 0.40674913 5.63777124 -1.42027313 5.63627642 C-5.26609425 6.24517543 -6.92320424 7.29597423 -9.5653038 10.13422108 Z " fill="#FFFFFF" transform="translate(61.565303802490234,252.86577892303467)"/>
<path d="M0 0 C1.12019531 -0.01611328 2.24039063 -0.03222656 3.39453125 -0.04882812 C16.58094132 -0.05652148 26.59980842 4.10275198 37.375 11.5625 C49.38548489 23.57298489 54.06115063 38.57905985 54.375 55.25 C54.08590754 71.65599698 50.61503274 85.98209719 39.31640625 98.28125 C28.2246769 108.79648614 15.13137577 111.67049957 0.375 111.6875 C-0.7284375 111.71199219 -1.831875 111.73648438 -2.96875 111.76171875 C-16.74620107 111.8102309 -29.05119515 107.02577122 -39.125 97.5625 C-50.19265792 85.75848581 -53.61729274 71.74045443 -53.375 55.875 C-53.36218994 54.59963379 -53.34937988 53.32426758 -53.33618164 52.01025391 C-52.98586281 35.78331952 -49.10338605 22.97857989 -37.125 11.4375 C-26.12646725 2.09376169 -13.99941628 -0.03999833 0 0 Z M-36.6875 20.1875 C-45.12685759 30.49793918 -47.44010679 42.60830625 -47.3125 55.6875 C-47.30420166 56.78586182 -47.29590332 57.88422363 -47.28735352 59.01586914 C-46.97446072 74.03360972 -42.60336647 85.02553545 -31.6875 95.625 C-19.33885593 106.10649514 -4.22002077 106.31845448 11.125 105.3125 C22.05921612 103.85992895 31.98873745 97.88427223 38.81640625 89.2578125 C48.36951395 75.05647627 49.92312427 57.96068661 46.87890625 41.3984375 C44.13045885 30.14831603 38.97340378 20.42911689 29.40625 13.6953125 C9.2126047 1.45464394 -20.05427956 2.25316084 -36.6875 20.1875 Z " fill="#FFFFFF" transform="translate(280.875,309.6875)"/>
<path d="M0 0 C1.12019531 -0.01611328 2.24039063 -0.03222656 3.39453125 -0.04882812 C16.58094132 -0.05652148 26.59980842 4.10275198 37.375 11.5625 C49.38548489 23.57298489 54.06115063 38.57905985 54.375 55.25 C54.08590754 71.65599698 50.61503274 85.98209719 39.31640625 98.28125 C28.2246769 108.79648614 15.13137577 111.67049957 0.375 111.6875 C-0.7284375 111.71199219 -1.831875 111.73648438 -2.96875 111.76171875 C-16.74620107 111.8102309 -29.05119515 107.02577122 -39.125 97.5625 C-50.19265792 85.75848581 -53.61729274 71.74045443 -53.375 55.875 C-53.36218994 54.59963379 -53.34937988 53.32426758 -53.33618164 52.01025391 C-52.98586281 35.78331952 -49.10338605 22.97857989 -37.125 11.4375 C-26.12646725 2.09376169 -13.99941628 -0.03999833 0 0 Z M-36.6875 20.1875 C-45.12685759 30.49793918 -47.44010679 42.60830625 -47.3125 55.6875 C-47.30420166 56.78586182 -47.29590332 57.88422363 -47.28735352 59.01586914 C-46.97446072 74.03360972 -42.60336647 85.02553545 -31.6875 95.625 C-19.33885593 106.10649514 -4.22002077 106.31845448 11.125 105.3125 C22.05921612 103.85992895 31.98873745 97.88427223 38.81640625 89.2578125 C48.36951395 75.05647627 49.92312427 57.96068661 46.87890625 41.3984375 C44.13045885 30.14831603 38.97340378 20.42911689 29.40625 13.6953125 C9.2126047 1.45464394 -20.05427956 2.25316084 -36.6875 20.1875 Z " fill="#FFFFFF" transform="translate(158.875,309.6875)"/>
</svg>
