<?xml version="1.0" encoding="UTF-8"?>
<svg version="1.1" xmlns="http://www.w3.org/2000/svg" width="604" height="604">
<path d="M0 0 C2.95988807 0.31433659 4.21476808 0.98695976 6.59179688 2.7355957 C7.32140625 3.26572266 8.05101563 3.79584961 8.80273438 4.34204102 C9.5684375 4.91921875 10.33414063 5.49639648 11.12304688 6.09106445 C11.9196875 6.67984375 12.71632813 7.26862305 13.53710938 7.87524414 C23.22329056 15.10484159 32.28984265 22.97277854 41.22851562 31.1027832 C42.84720158 32.57359573 44.47510658 34.034316 46.11132812 35.4855957 C54.84426954 43.24066499 63.07464532 51.36337414 70.62304688 60.27856445 C71.45578125 61.24536133 72.28851563 62.2121582 73.14648438 63.20825195 C79.57545902 70.69691001 85.75149548 78.34338974 91.62304688 86.27856445 C92.0882373 86.90714355 92.55342773 87.53572266 93.03271484 88.18334961 C101.30922094 99.451897 108.63331019 111.17625267 115.62304688 123.27856445 C116.30826416 124.45733154 116.30826416 124.45733154 117.00732422 125.65991211 C118.32875989 127.94282764 119.63526279 130.23354541 120.93554688 132.52856445 C121.30760254 133.17559326 121.6796582 133.82262207 122.06298828 134.48925781 C126.1885923 141.88904999 129.17775215 149.40360509 132.62304688 157.27856445 C161.33304688 157.27856445 190.04304688 157.27856445 219.62304688 157.27856445 C223.91304688 148.36856445 228.20304687 139.45856445 232.62304688 130.27856445 C243.02996918 112.06645042 254.52439531 94.6683345 267.62304688 78.27856445 C268.38230469 77.32594727 269.1415625 76.37333008 269.92382812 75.3918457 C274.29954375 69.9732134 278.83496179 64.73554126 283.52929688 59.59106445 C285.31209074 57.62200855 287.03423134 55.61966243 288.74804688 53.59106445 C296.94743662 44.18192868 306.04405433 35.27319892 315.62304688 27.27856445 C317.01136719 26.07393555 317.01136719 26.07393555 318.42773438 24.8449707 C345.79668201 1.1764928 345.79668201 1.1764928 353.31054688 -0.22143555 C355.62304688 0.27856445 355.62304688 0.27856445 357.16235352 1.99414062 C358.72368416 4.43595424 359.50964118 6.547107 360.30664062 9.3293457 C360.5925708 10.32595215 360.87850098 11.32255859 361.1730957 12.34936523 C361.46595459 13.41912598 361.75881348 14.48888672 362.06054688 15.59106445 C362.52013794 17.26144775 362.52013794 17.26144775 362.98901367 18.96557617 C375.23153197 64.71717194 374.124199 112.3360239 363.62304688 158.27856445 C364.51499756 158.25761719 365.40694824 158.23666992 366.32592773 158.21508789 C369.67515656 158.1464036 373.02362356 158.09652118 376.37329102 158.05883789 C377.81546939 158.03887694 379.25756847 158.01169782 380.69946289 157.97680664 C390.23778828 157.75198649 398.14341311 157.94129501 405.92773438 164.1027832 C406.70503906 165.02510742 406.70503906 165.02510742 407.49804688 165.96606445 C408.03171875 166.56805664 408.56539063 167.17004883 409.11523438 167.7902832 C413.63337076 175.24637874 414.05959352 182.75646814 414.02177429 191.29444885 C414.02842112 192.47820176 414.03506795 193.66195466 414.04191619 194.88157886 C414.05727356 198.14499302 414.05939635 201.40809799 414.05578673 204.67153609 C414.05516052 208.19905517 414.07180497 211.72649908 414.08630371 215.25398254 C414.1090521 221.35818102 414.12096831 227.46232256 414.12543297 233.56656075 C414.13190383 242.39214272 414.15485763 251.21762196 414.18177626 260.04316246 C414.22500965 274.36355868 414.25499608 288.68395056 414.27661133 303.00439453 C414.29763136 316.91164276 414.3249154 330.81885554 414.3605957 344.72607422 C414.36279453 345.58396443 414.36499335 346.44185465 414.36725881 347.32574154 C414.37832872 351.62971862 414.38952148 355.93369537 414.40077531 360.23767197 C414.49391157 395.91793921 414.56553216 431.59822269 414.62304688 467.27856445 C415.74068498 466.18303208 416.85513601 465.0842478 417.96826172 463.98413086 C418.58921722 463.37260162 419.21017273 462.76107239 419.84994507 462.13101196 C437.42289548 443.77167799 439.35452971 418.57530035 438.92773438 394.55200195 C438.70614782 385.2147077 437.80725692 375.96021377 436.69091797 366.69018555 C433.03651434 335.84667212 440.41214776 305.28175867 459.49804688 280.40356445 C461.18407106 278.33411421 462.87987118 276.29751849 464.62304688 274.27856445 C465.07905273 273.74038086 465.53505859 273.20219727 466.00488281 272.64770508 C473.3607016 264.03478342 481.41161937 256.85560035 490.62304688 250.27856445 C491.17686035 249.88185547 491.73067383 249.48514648 492.30126953 249.07641602 C504.71932827 240.32841243 518.50977254 233.52274862 533.06054688 229.15356445 C533.7641333 228.94119141 534.46771973 228.72881836 535.19262695 228.51000977 C538.62777488 227.55709037 541.24319249 226.91279209 544.62304688 228.27856445 C545.81033635 231.6853603 545.48348194 233.32708929 543.96289062 236.55981445 C543.58398682 237.39206543 543.20508301 238.22431641 542.81469727 239.08178711 C542.40082764 239.97172363 541.98695801 240.86166016 541.56054688 241.77856445 C538.31445734 249.04286854 535.45026718 256.27287203 533.18554688 263.90356445 C532.95150146 264.68280273 532.71745605 265.46204102 532.47631836 266.26489258 C526.16281326 288.23058056 528.41530343 308.88002405 532.71592712 330.92919922 C535.70222504 346.33757897 537.00919071 361.39705103 536.93554688 377.09106445 C536.93339172 377.92273132 536.93123657 378.75439819 536.92901611 379.61126709 C536.76073427 420.15162844 524.3583935 454.39047432 496.62304688 484.27856445 C496.09453125 484.87282227 495.56601562 485.46708008 495.02148438 486.0793457 C473.16694983 509.55896102 437.06100106 522.63540604 405.53928128 524.39487542 C400.03524921 524.57760017 394.5298175 524.5521294 389.02346802 524.53926086 C387.17329946 524.54228676 385.32313215 524.54617842 383.47296703 524.55085343 C378.42351751 524.56108483 373.37413938 524.55896412 368.32468414 524.55467284 C362.86595912 524.55219691 357.4072509 524.56123023 351.9485321 524.56871033 C341.27026476 524.58143295 330.59202259 524.58325426 319.91374893 524.58091006 C311.23613531 524.57912489 302.55852931 524.5808808 293.8809166 524.58513451 C292.64453676 524.5857297 291.40815693 524.58632488 290.13431104 524.58693811 C287.62247937 524.58814988 285.11064769 524.58936401 282.59881602 524.59058049 C261.74687723 524.60020865 240.89494896 524.60066454 220.04300918 524.59527657 C219.38066748 524.59510548 218.71832579 524.5949344 218.03591313 524.59475812 C216.69650293 524.59441147 215.35709273 524.59406294 214.01768253 524.59371254 C193.15727946 524.58835044 172.29691863 524.59630313 151.43652344 524.61474609 C127.97904535 524.63546109 104.52158936 524.64615917 81.0641011 524.64217061 C68.65056932 524.64025714 56.23707604 524.64276082 43.82355118 524.65688515 C33.26233914 524.6687807 22.70118933 524.67022394 12.13997646 524.65809498 C6.75163859 524.65219499 1.36341467 524.65113805 -4.0249157 524.66309738 C-8.95684275 524.67391679 -13.88856017 524.67089992 -18.82047726 524.6568357 C-20.60484601 524.65417802 -22.38923098 524.65658876 -24.17358385 524.66457156 C-26.59954622 524.67467191 -29.02477899 524.66626092 -31.4507122 524.65329456 C-32.14283664 524.66060391 -32.83496108 524.66791326 -33.54805899 524.6754441 C-40.80471657 524.59509013 -47.14709754 522.36314627 -52.37695312 517.27856445 C-58.80376202 509.01552445 -58.66830404 501.19447378 -58.63764954 491.12112427 C-58.64067239 489.77681004 -58.64456254 488.43249753 -58.6492421 487.08818805 C-58.65951365 483.40443617 -58.65734244 479.72078171 -58.65306151 476.03702188 C-58.65059275 472.06010151 -58.65961032 468.08320451 -58.667099 464.10629272 C-58.6798439 456.31902316 -58.68163995 448.53178807 -58.67929874 440.74450983 C-58.67751517 434.41418139 -58.67926606 428.08386341 -58.68352318 421.75353622 C-58.68411837 420.8523154 -58.68471356 419.95109457 -58.68532678 419.02256402 C-58.68653854 417.19168433 -58.68775268 415.36080465 -58.68896916 413.52992497 C-58.69984392 396.3624208 -58.69768252 379.19493628 -58.69158431 362.027431 C-58.68641535 346.32673857 -58.69767018 330.6261082 -58.71668253 314.92542805 C-58.73606083 298.79875014 -58.74431694 282.67210158 -58.74055928 266.54541194 C-58.73864721 257.49360352 -58.7411354 248.4418479 -58.75527382 239.39004898 C-58.76718848 231.68404878 -58.76859155 223.9781339 -58.75648365 216.27213253 C-58.75059554 212.3418963 -58.74949361 208.41181611 -58.76148605 204.48159027 C-58.7723467 200.88037574 -58.76923953 197.27944751 -58.75522437 193.67824636 C-58.7513288 191.76552414 -58.7621231 189.8527892 -58.77352124 187.94009697 C-58.71457913 178.54090879 -57.49487331 171.20705317 -51.36523438 163.8840332 C-43.22230228 157.3088955 -35.29360821 157.79004268 -25.37695312 158.02856445 C-23.91994644 158.0486611 -22.46291297 158.06690628 -21.00585938 158.08325195 C-17.46232763 158.12699545 -13.91981436 158.19584679 -10.37695312 158.27856445 C-10.58058472 157.4455481 -10.58058472 157.4455481 -10.78833008 156.59570312 C-22.44969977 108.09960494 -24.33469606 49.06356328 -4.37695312 2.27856445 C-2.37695312 0.27856445 -2.37695312 0.27856445 0 0 Z M-28.65770721 200.25477695 C-31.31331101 204.9254186 -30.9281376 209.37457548 -30.8848877 214.65916443 C-30.89112766 215.82301558 -30.89736762 216.98686673 -30.90379667 218.1859861 C-30.91699124 221.4127598 -30.91224253 224.63893167 -30.8998518 227.86569035 C-30.89080485 231.34703662 -30.9047693 234.82830127 -30.91577148 238.30963135 C-30.93356575 245.12832996 -30.92971259 251.94685253 -30.91812092 258.76555806 C-30.90908967 264.30745057 -30.90786126 269.84929372 -30.91221619 275.39119148 C-30.91282912 276.17975965 -30.91344205 276.96832782 -30.91407356 277.78079199 C-30.91535245 279.38273494 -30.91664931 280.98467789 -30.91796392 282.58662082 C-30.92937256 297.61137667 -30.91625197 312.63603493 -30.89476246 327.66077477 C-30.87689467 340.55238182 -30.87999236 353.44384478 -30.8984375 366.33544922 C-30.9198452 381.30465459 -30.92827024 396.27377439 -30.91598845 411.24299294 C-30.91471425 412.83936916 -30.91345676 414.4357454 -30.91221619 416.03212166 C-30.91159908 416.81757387 -30.91098198 417.60302609 -30.91034618 418.41227989 C-30.90689272 423.94693162 -30.91272161 429.48152908 -30.9221344 435.01617241 C-30.93335482 441.76202166 -30.9303137 448.50768474 -30.90901142 455.25351267 C-30.89850088 458.69532282 -30.89437881 462.13682262 -30.90760803 465.57863045 C-30.91850825 469.30972531 -30.9048648 473.0399422 -30.8848877 476.77098083 C-30.89381058 477.85901345 -30.90273347 478.94704607 -30.91192675 480.06804937 C-30.85101151 485.9174045 -30.59714 489.83321381 -26.37695312 494.27856445 C-21.92141796 496.95479903 -18.63958866 497.65398551 -13.47094727 497.65608788 C-12.7972258 497.6604482 -12.12350433 497.66480852 -11.42936707 497.66930097 C-9.17340866 497.68024321 -6.91806324 497.66984047 -4.66210938 497.65951538 C-3.02778307 497.66297236 -1.3934591 497.66773719 0.24085999 497.67369711 C4.73080686 497.68623126 9.22056266 497.68002575 13.71051025 497.67073846 C18.55311382 497.6639582 23.39568424 497.67442412 28.23828125 497.68267822 C37.72451199 497.69602867 47.21067159 497.69313197 56.69690514 497.6844403 C64.40552734 497.67766933 72.11412958 497.67674449 79.82275391 497.68001175 C80.91925168 497.68047145 82.01574945 497.68093115 83.14547443 497.68140478 C85.37288285 497.68236394 87.60029126 497.68333658 89.82769966 497.68432255 C110.72155958 497.69288029 131.61538003 497.68303629 152.50923347 497.66692145 C170.44302438 497.65351793 188.37675702 497.65584591 206.31054688 497.66967773 C227.12887023 497.68572676 247.94715899 497.69205628 268.76548767 497.68284094 C270.98477172 497.68188528 273.20405578 497.68094217 275.42333984 497.68001175 C276.51531331 497.67954892 277.60728678 497.6790861 278.73235035 497.67860924 C286.43306622 497.67601732 294.13376018 497.68039471 301.83447266 497.68745041 C311.21712813 497.69585808 320.59970829 497.6936007 329.98235512 497.67760818 C334.77091238 497.6697156 339.55934401 497.66665068 344.34790039 497.67655563 C348.7298645 497.68548259 353.1115863 497.68060273 357.49352837 497.66462298 C359.08025307 497.66126669 360.66699816 497.66298825 362.25370979 497.67025034 C364.40844567 497.6793571 366.56234875 497.67003303 368.71704102 497.65608788 C369.91446426 497.65560082 371.11188751 497.65511376 372.34559631 497.65461195 C377.30247604 497.08587043 380.54693328 495.41188958 383.96672153 491.81028843 C386.33488292 486.76074162 386.17292807 482.28485533 386.12425232 476.77098083 C386.12978672 475.60556969 386.13532111 474.44015855 386.14102322 473.23943192 C386.15226869 470.01297774 386.14560779 466.78713756 386.1312865 463.56071389 C386.12017051 460.07804933 386.1321213 456.59545301 386.14112854 453.11279297 C386.15505836 446.29389025 386.14750701 439.47517278 386.13245296 432.6562789 C386.1155904 424.71592648 386.11880339 416.77562018 386.12254704 408.83525539 C386.12842505 394.66861589 386.11425587 380.50206529 386.08959961 366.33544922 C386.06567446 352.58736845 386.05859718 338.83940644 386.0690918 325.09130859 C386.08049918 310.12064625 386.08243365 295.15003882 386.0679937 280.17937714 C386.06646786 278.58331526 386.0649475 276.98725337 386.06343269 275.39119148 C386.06267488 274.60589354 386.06191707 273.8205956 386.06113629 273.01150076 C386.05639242 267.47587927 386.05824559 261.9402823 386.06249809 256.40466118 C386.06742296 249.65992866 386.06144835 242.91530845 386.0416038 236.17060166 C386.03172734 232.72895871 386.02663041 229.28748683 386.03449631 225.84583473 C386.04042872 222.11676019 386.02798242 218.38819317 386.01072693 214.65916443 C386.01673697 213.56890109 386.02274702 212.47863775 386.02893919 211.35533613 C386.11267197 204.23472326 386.11267197 204.23472326 382.62304688 198.27856445 C378.1492646 195.60969946 374.86465493 194.9031371 369.68301296 194.90104103 C369.00561515 194.89668071 368.32821734 194.89232039 367.63029233 194.88782793 C365.36183897 194.87688498 363.09399512 194.88728877 360.82554626 194.89761353 C359.18225769 194.89415658 357.53897143 194.88939177 355.89569002 194.88343179 C351.38100974 194.8708973 346.86651948 194.8771033 342.35183847 194.88639045 C337.48266899 194.89317051 332.61353247 194.88270492 327.74436951 194.87445068 C318.20633695 194.86110032 308.66837515 194.86399681 299.13033979 194.87268861 C291.38023305 194.87945922 283.63014616 194.88038457 275.88003731 194.87711716 C274.77770009 194.87665746 273.67536287 194.87619776 272.53962149 194.87572413 C270.30037334 194.87476497 268.0611252 194.87379233 265.82187707 194.87280636 C244.81740836 194.86424875 223.8129789 194.87409263 202.80851663 194.89020745 C184.7771913 194.90361283 166.7459239 194.90128144 148.71459961 194.88745117 C127.78458453 194.87140513 106.85460387 194.86507079 85.92458349 194.87428796 C83.69380256 194.87524363 81.46302162 194.87618674 79.23224068 194.87711716 C78.13459828 194.87757998 77.03695588 194.87804281 75.90605159 194.87851966 C68.16278696 194.88111234 60.41954413 194.87673261 52.67628288 194.8696785 C43.24345997 194.86127422 33.81071198 194.86352111 24.37789767 194.87952073 C19.56313606 194.88741761 14.74849946 194.89047093 9.93373871 194.88057327 C5.52900541 194.87165527 1.1245134 194.87651125 -3.28019791 194.89250593 C-4.87632603 194.89586602 -6.4724744 194.89413221 -8.06858958 194.88687856 C-10.2336054 194.87779178 -12.39778841 194.88707542 -14.56276035 194.90104103 C-15.76663885 194.90152809 -16.97051734 194.90201514 -18.210877 194.90251696 C-22.72927313 195.43918489 -25.28259391 197.33033143 -28.65770721 200.25477695 Z " fill="#000000" transform="translate(58.376953125,39.721435546875)"/>
<path d="M0 0 C0.94294922 -0.020625 1.88589844 -0.04125 2.85742188 -0.0625 C14.78742589 -0.12809452 26.62569424 3.79179439 35.3125 12.25 C46.04778668 25.52849811 49.66827924 40.53968246 48 57.41015625 C46.31474692 70.27525786 41.7455413 82.59956983 31.29296875 90.90625 C17.71713007 100.11746993 1.42729779 101.45041735 -14.47265625 98.5625 C-25.8752133 95.03138556 -34.99710835 87.92843303 -41.2265625 77.73046875 C-48.72277786 63.46135706 -49.10157476 44.79212793 -45.125 29.3125 C-41.49891872 18.93045675 -34.62908254 9.72982979 -24.6875 4.74609375 C-16.2190196 1.10340181 -9.14160686 0.04898383 0 0 Z " fill="#000000" transform="translate(262.6875,297.75)"/>
<path d="M0 0 C0.94294922 -0.020625 1.88589844 -0.04125 2.85742188 -0.0625 C14.78742589 -0.12809452 26.62569424 3.79179439 35.3125 12.25 C46.04778668 25.52849811 49.66827924 40.53968246 48 57.41015625 C46.31474692 70.27525786 41.7455413 82.59956983 31.29296875 90.90625 C17.71713007 100.11746993 1.42729779 101.45041735 -14.47265625 98.5625 C-25.8752133 95.03138556 -34.99710835 87.92843303 -41.2265625 77.73046875 C-48.72277786 63.46135706 -49.10157476 44.79212793 -45.125 29.3125 C-41.49891872 18.93045675 -34.62908254 9.72982979 -24.6875 4.74609375 C-16.2190196 1.10340181 -9.14160686 0.04898383 0 0 Z " fill="#000000" transform="translate(140.6875,297.75)"/>
</svg>
